<mxfile host="65bd71144e">
    <diagram id="OHIYegUT6QVvZihflI_Z" name="Page-1">
        <mxGraphModel dx="1620" dy="1473" grid="0" gridSize="10" guides="1" tooltips="1" connect="1" arrows="1" fold="1" page="1" pageScale="1" pageWidth="827" pageHeight="1169" background="#333333" math="0" shadow="0">
            <root>
                <mxCell id="0"/>
                <mxCell id="1" parent="0"/>
                <mxCell id="58" value="" style="rounded=1;whiteSpace=wrap;html=1;arcSize=0;fillColor=#333333;" vertex="1" parent="1">
                    <mxGeometry x="3" y="1" width="821" height="1167" as="geometry"/>
                </mxCell>
                <mxCell id="57" value="" style="rounded=1;whiteSpace=wrap;html=1;strokeColor=#FFFFFF;strokeWidth=4;fontFamily=Helvetica;fontSize=43;fontColor=default;fillColor=none;" parent="1" vertex="1">
                    <mxGeometry x="13" y="20" width="190" height="73" as="geometry"/>
                </mxCell>
                <mxCell id="55" value="" style="rounded=1;whiteSpace=wrap;html=1;strokeColor=#FFFFFF;strokeWidth=4;fontFamily=Helvetica;fontSize=12;fontColor=default;fillColor=none;arcSize=4;" parent="1" vertex="1">
                    <mxGeometry x="12" y="114" width="806" height="338" as="geometry"/>
                </mxCell>
                <mxCell id="6" style="edgeStyle=elbowEdgeStyle;html=1;entryX=0.5;entryY=0;entryDx=0;entryDy=0;fontFamily=Helvetica;fontSize=12;fontColor=default;elbow=vertical;strokeWidth=3;strokeColor=#FFFFFF;endArrow=openThin;endFill=0;" parent="1" source="2" target="3" edge="1">
                    <mxGeometry relative="1" as="geometry"/>
                </mxCell>
                <mxCell id="7" style="edgeStyle=elbowEdgeStyle;shape=connector;rounded=1;elbow=vertical;html=1;entryX=0.5;entryY=0;entryDx=0;entryDy=0;labelBackgroundColor=default;strokeColor=#FFFFFF;strokeWidth=3;fontFamily=Helvetica;fontSize=12;fontColor=default;endArrow=openThin;endFill=0;" parent="1" source="2" target="4" edge="1">
                    <mxGeometry relative="1" as="geometry"/>
                </mxCell>
                <mxCell id="2" value="&lt;b style=&quot;font-size: 30px;&quot;&gt;&lt;font color=&quot;#994c00&quot;&gt;App&lt;/font&gt;&lt;/b&gt;" style="rounded=1;whiteSpace=wrap;html=1;fillColor=#FFE6CC;strokeColor=#CC6600;strokeWidth=4;" parent="1" vertex="1">
                    <mxGeometry x="332" y="722" width="163" height="68" as="geometry"/>
                </mxCell>
                <mxCell id="25" style="edgeStyle=elbowEdgeStyle;shape=connector;rounded=1;elbow=vertical;html=1;labelBackgroundColor=default;strokeColor=#FFFFFF;strokeWidth=3;fontFamily=Helvetica;fontSize=12;fontColor=default;endArrow=openThin;endFill=0;" parent="1" source="3" target="20" edge="1">
                    <mxGeometry relative="1" as="geometry"/>
                </mxCell>
                <mxCell id="26" style="edgeStyle=elbowEdgeStyle;shape=connector;rounded=1;elbow=vertical;html=1;labelBackgroundColor=default;strokeColor=#FFFFFF;strokeWidth=3;fontFamily=Helvetica;fontSize=12;fontColor=default;endArrow=openThin;endFill=0;" parent="1" source="3" target="19" edge="1">
                    <mxGeometry relative="1" as="geometry"/>
                </mxCell>
                <mxCell id="54" style="edgeStyle=elbowEdgeStyle;shape=connector;rounded=1;elbow=vertical;html=1;entryX=0;entryY=0.5;entryDx=0;entryDy=0;entryPerimeter=0;labelBackgroundColor=default;strokeColor=#FFFFFF;strokeWidth=3;fontFamily=Helvetica;fontSize=12;fontColor=default;endArrow=openThin;endFill=0;" parent="1" source="3" target="50" edge="1">
                    <mxGeometry relative="1" as="geometry">
                        <Array as="points">
                            <mxPoint x="658" y="535"/>
                            <mxPoint x="510" y="535"/>
                        </Array>
                    </mxGeometry>
                </mxCell>
                <mxCell id="3" value="&lt;b style=&quot;font-size: 30px;&quot;&gt;&lt;font color=&quot;#994c00&quot;&gt;Com&lt;/font&gt;&lt;/b&gt;" style="rounded=1;whiteSpace=wrap;html=1;fillColor=#FFE6CC;strokeColor=#CC6600;strokeWidth=4;" parent="1" vertex="1">
                    <mxGeometry x="532" y="891" width="163" height="68" as="geometry"/>
                </mxCell>
                <mxCell id="23" style="edgeStyle=elbowEdgeStyle;shape=connector;rounded=1;elbow=vertical;html=1;labelBackgroundColor=default;strokeColor=#FFFFFF;strokeWidth=3;fontFamily=Helvetica;fontSize=12;fontColor=default;endArrow=openThin;endFill=0;" parent="1" source="4" target="22" edge="1">
                    <mxGeometry relative="1" as="geometry"/>
                </mxCell>
                <mxCell id="24" style="edgeStyle=elbowEdgeStyle;shape=connector;rounded=1;elbow=vertical;html=1;entryX=0.5;entryY=0;entryDx=0;entryDy=0;labelBackgroundColor=default;strokeColor=#FFFFFF;strokeWidth=3;fontFamily=Helvetica;fontSize=12;fontColor=default;endArrow=openThin;endFill=0;" parent="1" source="4" target="21" edge="1">
                    <mxGeometry relative="1" as="geometry"/>
                </mxCell>
                <mxCell id="53" style="edgeStyle=elbowEdgeStyle;shape=connector;rounded=1;elbow=vertical;html=1;entryX=0;entryY=0.5;entryDx=0;entryDy=0;entryPerimeter=0;labelBackgroundColor=default;strokeColor=#FFFFFF;strokeWidth=3;fontFamily=Helvetica;fontSize=12;fontColor=default;endArrow=openThin;endFill=0;" parent="1" source="4" target="50" edge="1">
                    <mxGeometry relative="1" as="geometry">
                        <Array as="points">
                            <mxPoint x="164" y="535"/>
                            <mxPoint x="164" y="533"/>
                            <mxPoint x="164" y="370"/>
                        </Array>
                    </mxGeometry>
                </mxCell>
                <mxCell id="4" value="&lt;b style=&quot;font-size: 30px;&quot;&gt;&lt;font color=&quot;#994c00&quot;&gt;Com&lt;/font&gt;&lt;/b&gt;" style="rounded=1;whiteSpace=wrap;html=1;fillColor=#FFE6CC;strokeColor=#CC6600;strokeWidth=4;" parent="1" vertex="1">
                    <mxGeometry x="132" y="891" width="163" height="68" as="geometry"/>
                </mxCell>
                <mxCell id="9" value="" style="rounded=1;whiteSpace=wrap;html=1;strokeColor=#FFFFFF;strokeWidth=4;fontFamily=Helvetica;fontSize=12;fontColor=default;fillColor=#4D4D4D;arcSize=6;" parent="1" vertex="1">
                    <mxGeometry x="419" y="139" width="378" height="284" as="geometry"/>
                </mxCell>
                <mxCell id="15" value="&lt;font color=&quot;#994c00&quot; size=&quot;1&quot; style=&quot;&quot;&gt;&lt;b style=&quot;font-size: 30px;&quot;&gt;state&lt;/b&gt;&lt;/font&gt;" style="shape=datastore;whiteSpace=wrap;html=1;rounded=1;strokeColor=#CC6600;strokeWidth=4;fontFamily=Helvetica;fontSize=12;fontColor=default;fillColor=#FFE6CC;" parent="1" vertex="1">
                    <mxGeometry x="644" y="179" width="133" height="176" as="geometry"/>
                </mxCell>
                <mxCell id="17" style="edgeStyle=elbowEdgeStyle;shape=connector;rounded=1;elbow=vertical;html=1;entryX=0.5;entryY=0;entryDx=0;entryDy=0;labelBackgroundColor=default;strokeColor=#FFFFFF;strokeWidth=3;fontFamily=Helvetica;fontSize=30;fontColor=#004C99;endArrow=openThin;endFill=0;" parent="1" source="16" target="2" edge="1">
                    <mxGeometry relative="1" as="geometry"/>
                </mxCell>
                <mxCell id="16" value="&lt;b style=&quot;font-size: 30px;&quot;&gt;&lt;font color=&quot;#994c00&quot;&gt;index&lt;/font&gt;&lt;/b&gt;" style="rounded=1;whiteSpace=wrap;html=1;fillColor=#FFE6CC;strokeColor=#CC6600;strokeWidth=4;" parent="1" vertex="1">
                    <mxGeometry x="332" y="569" width="163" height="68" as="geometry"/>
                </mxCell>
                <mxCell id="52" style="edgeStyle=elbowEdgeStyle;shape=connector;rounded=1;elbow=vertical;html=1;labelBackgroundColor=default;strokeColor=#FFFFFF;strokeWidth=3;fontFamily=Helvetica;fontSize=12;fontColor=default;endArrow=openThin;endFill=0;entryX=0;entryY=0.5;entryDx=0;entryDy=0;entryPerimeter=0;" parent="1" source="19" target="50" edge="1">
                    <mxGeometry relative="1" as="geometry">
                        <mxPoint x="304.2857142857142" y="316.8571428571429" as="targetPoint"/>
                        <Array as="points">
                            <mxPoint x="767" y="500"/>
                            <mxPoint x="724" y="500"/>
                            <mxPoint x="411" y="353"/>
                            <mxPoint x="399" y="351"/>
                            <mxPoint x="396" y="354"/>
                            <mxPoint x="767" y="351"/>
                        </Array>
                    </mxGeometry>
                </mxCell>
                <mxCell id="19" value="&lt;b style=&quot;font-size: 30px;&quot;&gt;&lt;font color=&quot;#994c00&quot;&gt;Com&lt;/font&gt;&lt;/b&gt;" style="rounded=1;whiteSpace=wrap;html=1;fillColor=#FFE6CC;strokeColor=#CC6600;strokeWidth=4;" parent="1" vertex="1">
                    <mxGeometry x="642" y="1034" width="163" height="68" as="geometry"/>
                </mxCell>
                <mxCell id="20" value="&lt;b style=&quot;font-size: 30px;&quot;&gt;&lt;font color=&quot;#994c00&quot;&gt;Com&lt;/font&gt;&lt;/b&gt;" style="rounded=1;whiteSpace=wrap;html=1;fillColor=#FFE6CC;strokeColor=#CC6600;strokeWidth=4;" parent="1" vertex="1">
                    <mxGeometry x="422" y="1034" width="163" height="68" as="geometry"/>
                </mxCell>
                <mxCell id="21" value="&lt;b style=&quot;font-size: 30px;&quot;&gt;&lt;font color=&quot;#994c00&quot;&gt;Com&lt;/font&gt;&lt;/b&gt;" style="rounded=1;whiteSpace=wrap;html=1;fillColor=#FFE6CC;strokeColor=#CC6600;strokeWidth=4;" parent="1" vertex="1">
                    <mxGeometry x="242" y="1034" width="163" height="68" as="geometry"/>
                </mxCell>
                <mxCell id="51" style="edgeStyle=elbowEdgeStyle;shape=connector;rounded=1;elbow=vertical;html=1;labelBackgroundColor=default;strokeColor=#FFFFFF;strokeWidth=3;fontFamily=Helvetica;fontSize=12;fontColor=default;endArrow=openThin;endFill=0;" parent="1" source="22" target="50" edge="1">
                    <mxGeometry relative="1" as="geometry">
                        <Array as="points">
                            <mxPoint x="59" y="501"/>
                            <mxPoint x="59" y="353"/>
                        </Array>
                    </mxGeometry>
                </mxCell>
                <mxCell id="22" value="&lt;b style=&quot;font-size: 30px;&quot;&gt;&lt;font color=&quot;#994c00&quot;&gt;Com&lt;/font&gt;&lt;/b&gt;" style="rounded=1;whiteSpace=wrap;html=1;fillColor=#FFE6CC;strokeColor=#CC6600;strokeWidth=4;" parent="1" vertex="1">
                    <mxGeometry x="29" y="1034" width="163" height="68" as="geometry"/>
                </mxCell>
                <mxCell id="28" style="edgeStyle=elbowEdgeStyle;shape=connector;rounded=1;elbow=vertical;html=1;labelBackgroundColor=default;strokeColor=#808080;strokeWidth=3;fontFamily=Helvetica;fontSize=12;fontColor=default;endArrow=openThin;endFill=0;" parent="1" source="27" target="9" edge="1">
                    <mxGeometry relative="1" as="geometry"/>
                </mxCell>
                <mxCell id="30" style="edgeStyle=elbowEdgeStyle;shape=connector;rounded=1;elbow=vertical;html=1;entryX=0.15;entryY=0.95;entryDx=0;entryDy=0;entryPerimeter=0;labelBackgroundColor=default;strokeColor=#FFFFFF;strokeWidth=3;fontFamily=Helvetica;fontSize=12;fontColor=default;endArrow=openThin;endFill=0;" parent="1" source="27" target="15" edge="1">
                    <mxGeometry relative="1" as="geometry">
                        <Array as="points">
                            <mxPoint x="609" y="366"/>
                        </Array>
                    </mxGeometry>
                </mxCell>
                <mxCell id="31" style="edgeStyle=elbowEdgeStyle;shape=connector;rounded=1;elbow=vertical;html=1;entryX=0.15;entryY=0.05;entryDx=0;entryDy=0;entryPerimeter=0;labelBackgroundColor=default;strokeColor=#FFFFFF;strokeWidth=3;fontFamily=Helvetica;fontSize=12;fontColor=default;endArrow=openThin;endFill=0;exitX=0.5;exitY=0;exitDx=0;exitDy=0;" parent="1" source="27" target="15" edge="1">
                    <mxGeometry relative="1" as="geometry">
                        <Array as="points">
                            <mxPoint x="577" y="169"/>
                        </Array>
                    </mxGeometry>
                </mxCell>
                <mxCell id="32" style="edgeStyle=elbowEdgeStyle;shape=connector;rounded=1;elbow=vertical;html=1;labelBackgroundColor=default;strokeColor=#FFFFFF;strokeWidth=3;fontFamily=Helvetica;fontSize=12;fontColor=default;endArrow=openThin;endFill=0;" parent="1" source="27" target="15" edge="1">
                    <mxGeometry relative="1" as="geometry"/>
                </mxCell>
                <mxCell id="33" style="edgeStyle=elbowEdgeStyle;shape=connector;rounded=1;elbow=vertical;html=1;entryX=0;entryY=0.3;entryDx=0;entryDy=0;labelBackgroundColor=default;strokeColor=#FFFFFF;strokeWidth=3;fontFamily=Helvetica;fontSize=12;fontColor=default;endArrow=openThin;endFill=0;" parent="1" source="27" target="15" edge="1">
                    <mxGeometry relative="1" as="geometry"/>
                </mxCell>
                <mxCell id="35" style="edgeStyle=elbowEdgeStyle;shape=connector;rounded=1;elbow=vertical;html=1;entryX=0.002;entryY=0.794;entryDx=0;entryDy=0;entryPerimeter=0;labelBackgroundColor=default;strokeColor=#FFFFFF;strokeWidth=3;fontFamily=Helvetica;fontSize=12;fontColor=default;endArrow=openThin;endFill=0;" parent="1" source="27" target="15" edge="1">
                    <mxGeometry relative="1" as="geometry"/>
                </mxCell>
                <mxCell id="36" style="edgeStyle=elbowEdgeStyle;shape=connector;rounded=1;elbow=vertical;html=1;entryX=0.5;entryY=0;entryDx=0;entryDy=0;labelBackgroundColor=default;strokeColor=#FFFFFF;strokeWidth=3;fontFamily=Helvetica;fontSize=12;fontColor=default;endArrow=openThin;endFill=0;exitX=0.5;exitY=0;exitDx=0;exitDy=0;" parent="1" source="27" target="15" edge="1">
                    <mxGeometry relative="1" as="geometry">
                        <Array as="points">
                            <mxPoint x="607" y="152"/>
                        </Array>
                    </mxGeometry>
                </mxCell>
                <mxCell id="37" style="edgeStyle=elbowEdgeStyle;shape=connector;rounded=1;elbow=vertical;html=1;entryX=0.571;entryY=1.005;entryDx=0;entryDy=0;entryPerimeter=0;labelBackgroundColor=default;strokeColor=#FFFFFF;strokeWidth=3;fontFamily=Helvetica;fontSize=12;fontColor=default;endArrow=openThin;endFill=0;" parent="1" source="27" target="15" edge="1">
                    <mxGeometry relative="1" as="geometry">
                        <Array as="points">
                            <mxPoint x="619" y="386"/>
                        </Array>
                    </mxGeometry>
                </mxCell>
                <mxCell id="27" value="&lt;b style=&quot;font-size: 30px;&quot;&gt;&lt;font color=&quot;#994c00&quot;&gt;reducer&lt;/font&gt;&lt;/b&gt;" style="shape=rhombus;perimeter=rhombusPerimeter;whiteSpace=wrap;html=1;align=center;rounded=1;strokeColor=#CC6600;strokeWidth=4;fontFamily=Helvetica;fontSize=12;fontColor=default;fillColor=#FFE6CC;" parent="1" vertex="1">
                    <mxGeometry x="432" y="232.5" width="175" height="86" as="geometry"/>
                </mxCell>
                <mxCell id="49" style="edgeStyle=elbowEdgeStyle;shape=connector;rounded=1;elbow=vertical;html=1;entryX=0;entryY=0.25;entryDx=0;entryDy=0;entryPerimeter=0;labelBackgroundColor=default;strokeColor=#FFFFFF;strokeWidth=3;fontFamily=Helvetica;fontSize=12;fontColor=default;endArrow=openThin;endFill=0;exitX=0.5;exitY=1;exitDx=0;exitDy=0;" parent="1" source="38" target="42" edge="1">
                    <mxGeometry relative="1" as="geometry">
                        <Array as="points">
                            <mxPoint x="166" y="252"/>
                        </Array>
                    </mxGeometry>
                </mxCell>
                <mxCell id="38" value="&lt;b style=&quot;font-size: 30px;&quot;&gt;&lt;font color=&quot;#994c00&quot;&gt;action&lt;/font&gt;&lt;br&gt;&lt;/b&gt;" style="ellipse;whiteSpace=wrap;html=1;rounded=1;strokeColor=#CC6600;strokeWidth=4;fontFamily=Helvetica;fontSize=12;fontColor=default;fillColor=#FFE6CC;" parent="1" vertex="1">
                    <mxGeometry x="27.29" y="147" width="149.91" height="77" as="geometry"/>
                </mxCell>
                <mxCell id="43" style="edgeStyle=elbowEdgeStyle;shape=connector;rounded=1;elbow=vertical;html=1;labelBackgroundColor=default;strokeColor=#FFFFFF;strokeWidth=3;fontFamily=Helvetica;fontSize=12;fontColor=default;endArrow=openThin;endFill=0;entryX=0;entryY=0.5;entryDx=0;entryDy=0;" parent="1" source="42" target="27" edge="1">
                    <mxGeometry relative="1" as="geometry"/>
                </mxCell>
                <mxCell id="42" value="&lt;b style=&quot;text-align: right; background-color: initial; font-size: 30px;&quot;&gt;&lt;font color=&quot;#994c00&quot;&gt;dispatch&amp;nbsp;&lt;/font&gt;&lt;/b&gt;" style="shape=or;whiteSpace=wrap;html=1;rounded=1;strokeColor=#CC6600;strokeWidth=4;fontFamily=Helvetica;fontSize=12;fontColor=default;fillColor=#FFE6CC;" parent="1" vertex="1">
                    <mxGeometry x="239" y="229" width="142" height="93" as="geometry"/>
                </mxCell>
                <mxCell id="47" style="edgeStyle=elbowEdgeStyle;shape=connector;rounded=1;elbow=vertical;html=1;labelBackgroundColor=default;strokeColor=#FFFFFF;strokeWidth=3;fontFamily=Helvetica;fontSize=12;fontColor=default;endArrow=openThin;endFill=0;exitX=0.5;exitY=0;exitDx=0;exitDy=0;" parent="1" source="44" edge="1">
                    <mxGeometry relative="1" as="geometry">
                        <mxPoint x="239" y="300" as="targetPoint"/>
                        <Array as="points">
                            <mxPoint x="174" y="300"/>
                        </Array>
                    </mxGeometry>
                </mxCell>
                <mxCell id="44" value="&lt;b style=&quot;font-size: 30px;&quot;&gt;&lt;font color=&quot;#994c00&quot;&gt;payload&lt;/font&gt;&lt;br&gt;&lt;/b&gt;" style="ellipse;whiteSpace=wrap;html=1;rounded=1;strokeColor=#CC6600;strokeWidth=4;fontFamily=Helvetica;fontSize=12;fontColor=default;fillColor=#FFE6CC;" parent="1" vertex="1">
                    <mxGeometry x="27.29" y="327" width="149.92" height="77" as="geometry"/>
                </mxCell>
                <mxCell id="50" value="" style="shape=singleArrow;direction=north;whiteSpace=wrap;html=1;rounded=1;strokeColor=#CC6600;strokeWidth=4;fontFamily=Helvetica;fontSize=12;fontColor=default;fillColor=#FFE6CC;arrowWidth=0.3769841269841218;arrowSize=0.5194805194805202;" parent="1" vertex="1">
                    <mxGeometry x="272" y="324" width="63" height="100" as="geometry"/>
                </mxCell>
                <mxCell id="56" value="&lt;b style=&quot;text-align: right; background-color: initial;&quot;&gt;&lt;font color=&quot;#994c00&quot; style=&quot;font-size: 43px;&quot;&gt;&lt;u style=&quot;&quot;&gt;REDUX&lt;/u&gt;&lt;/font&gt;&lt;/b&gt;" style="text;html=1;strokeColor=none;fillColor=none;align=center;verticalAlign=middle;whiteSpace=wrap;rounded=0;strokeWidth=4;fontFamily=Helvetica;fontSize=12;fontColor=default;" parent="1" vertex="1">
                    <mxGeometry x="25" y="30" width="162" height="56" as="geometry"/>
                </mxCell>
            </root>
        </mxGraphModel>
    </diagram>
</mxfile>